<mxfile host="app.diagrams.net" modified="2021-06-25T13:45:25.882Z" agent="5.0 (Windows NT 10.0; Win64; x64) AppleWebKit/537.36 (KHTML, like Gecko) Chrome/91.0.4472.114 Safari/537.36" etag="UHRGm2nLK-jW-Lh5BLuo" version="14.6.13" type="github">
  <diagram name="Page-1" id="e7e014a7-5840-1c2e-5031-d8a46d1fe8dd">
    <mxGraphModel dx="1499" dy="1480" grid="1" gridSize="10" guides="1" tooltips="1" connect="1" arrows="1" fold="1" page="1" pageScale="1" pageWidth="1169" pageHeight="826" background="none" math="0" shadow="0">
      <root>
        <mxCell id="0" />
        <mxCell id="1" parent="0" />
        <mxCell id="ACYu-CS5zie8mW0Onrlg-125" style="edgeStyle=orthogonalEdgeStyle;rounded=0;orthogonalLoop=1;jettySize=auto;html=1;entryX=0;entryY=0.375;entryDx=0;entryDy=0;entryPerimeter=0;" edge="1" parent="1" source="ACYu-CS5zie8mW0Onrlg-74" target="ACYu-CS5zie8mW0Onrlg-96">
          <mxGeometry relative="1" as="geometry" />
        </mxCell>
        <mxCell id="ACYu-CS5zie8mW0Onrlg-74" value="book" style="swimlane;fontStyle=1;align=center;verticalAlign=top;childLayout=stackLayout;horizontal=1;startSize=26;horizontalStack=0;resizeParent=1;resizeParentMax=0;resizeLast=0;collapsible=1;marginBottom=0;" vertex="1" parent="1">
          <mxGeometry x="140" y="-318" width="160" height="118" as="geometry" />
        </mxCell>
        <mxCell id="ACYu-CS5zie8mW0Onrlg-75" value="+ book name&#xa;+book id&#xa;" style="text;strokeColor=none;fillColor=none;align=left;verticalAlign=top;spacingLeft=4;spacingRight=4;overflow=hidden;rotatable=0;points=[[0,0.5],[1,0.5]];portConstraint=eastwest;" vertex="1" parent="ACYu-CS5zie8mW0Onrlg-74">
          <mxGeometry y="26" width="160" height="44" as="geometry" />
        </mxCell>
        <mxCell id="ACYu-CS5zie8mW0Onrlg-76" value="" style="line;strokeWidth=1;fillColor=none;align=left;verticalAlign=middle;spacingTop=-1;spacingLeft=3;spacingRight=3;rotatable=0;labelPosition=right;points=[];portConstraint=eastwest;" vertex="1" parent="ACYu-CS5zie8mW0Onrlg-74">
          <mxGeometry y="70" width="160" height="8" as="geometry" />
        </mxCell>
        <mxCell id="ACYu-CS5zie8mW0Onrlg-77" value="+checkavailabilty()&#xa;&#xa;" style="text;strokeColor=none;fillColor=none;align=left;verticalAlign=top;spacingLeft=4;spacingRight=4;overflow=hidden;rotatable=0;points=[[0,0.5],[1,0.5]];portConstraint=eastwest;" vertex="1" parent="ACYu-CS5zie8mW0Onrlg-74">
          <mxGeometry y="78" width="160" height="40" as="geometry" />
        </mxCell>
        <mxCell id="ACYu-CS5zie8mW0Onrlg-78" value="catalog" style="swimlane;fontStyle=1;childLayout=stackLayout;horizontal=1;startSize=26;fillColor=none;horizontalStack=0;resizeParent=1;resizeParentMax=0;resizeLast=0;collapsible=1;marginBottom=0;" vertex="1" parent="1">
          <mxGeometry x="280" y="-610" width="140" height="106" as="geometry" />
        </mxCell>
        <mxCell id="ACYu-CS5zie8mW0Onrlg-79" value="+book details" style="text;strokeColor=none;fillColor=none;align=left;verticalAlign=top;spacingLeft=4;spacingRight=4;overflow=hidden;rotatable=0;points=[[0,0.5],[1,0.5]];portConstraint=eastwest;" vertex="1" parent="ACYu-CS5zie8mW0Onrlg-78">
          <mxGeometry y="26" width="140" height="24" as="geometry" />
        </mxCell>
        <mxCell id="ACYu-CS5zie8mW0Onrlg-80" value="+ online book services()" style="text;strokeColor=none;fillColor=none;align=left;verticalAlign=top;spacingLeft=4;spacingRight=4;overflow=hidden;rotatable=0;points=[[0,0.5],[1,0.5]];portConstraint=eastwest;" vertex="1" parent="ACYu-CS5zie8mW0Onrlg-78">
          <mxGeometry y="50" width="140" height="30" as="geometry" />
        </mxCell>
        <mxCell id="ACYu-CS5zie8mW0Onrlg-81" value="+in person booking()" style="text;strokeColor=none;fillColor=none;align=left;verticalAlign=top;spacingLeft=4;spacingRight=4;overflow=hidden;rotatable=0;points=[[0,0.5],[1,0.5]];portConstraint=eastwest;" vertex="1" parent="ACYu-CS5zie8mW0Onrlg-78">
          <mxGeometry y="80" width="140" height="26" as="geometry" />
        </mxCell>
        <mxCell id="ACYu-CS5zie8mW0Onrlg-127" style="edgeStyle=orthogonalEdgeStyle;rounded=0;orthogonalLoop=1;jettySize=auto;html=1;entryX=0.732;entryY=1.006;entryDx=0;entryDy=0;entryPerimeter=0;" edge="1" parent="1" source="ACYu-CS5zie8mW0Onrlg-82" target="ACYu-CS5zie8mW0Onrlg-110">
          <mxGeometry relative="1" as="geometry" />
        </mxCell>
        <mxCell id="ACYu-CS5zie8mW0Onrlg-82" value="service dispaly" style="swimlane;fontStyle=1;align=center;verticalAlign=top;childLayout=stackLayout;horizontal=1;startSize=26;horizontalStack=0;resizeParent=1;resizeParentMax=0;resizeLast=0;collapsible=1;marginBottom=0;" vertex="1" parent="1">
          <mxGeometry x="600" y="-350" width="160" height="130" as="geometry" />
        </mxCell>
        <mxCell id="ACYu-CS5zie8mW0Onrlg-83" value="+book id" style="text;strokeColor=none;fillColor=none;align=left;verticalAlign=top;spacingLeft=4;spacingRight=4;overflow=hidden;rotatable=0;points=[[0,0.5],[1,0.5]];portConstraint=eastwest;" vertex="1" parent="ACYu-CS5zie8mW0Onrlg-82">
          <mxGeometry y="26" width="160" height="26" as="geometry" />
        </mxCell>
        <mxCell id="ACYu-CS5zie8mW0Onrlg-84" value="" style="line;strokeWidth=1;fillColor=none;align=left;verticalAlign=middle;spacingTop=-1;spacingLeft=3;spacingRight=3;rotatable=0;labelPosition=right;points=[];portConstraint=eastwest;" vertex="1" parent="ACYu-CS5zie8mW0Onrlg-82">
          <mxGeometry y="52" width="160" height="8" as="geometry" />
        </mxCell>
        <mxCell id="ACYu-CS5zie8mW0Onrlg-85" value="+display borrowed books()&#xa;+display all service()" style="text;strokeColor=none;fillColor=none;align=left;verticalAlign=top;spacingLeft=4;spacingRight=4;overflow=hidden;rotatable=0;points=[[0,0.5],[1,0.5]];portConstraint=eastwest;" vertex="1" parent="ACYu-CS5zie8mW0Onrlg-82">
          <mxGeometry y="60" width="160" height="70" as="geometry" />
        </mxCell>
        <mxCell id="ACYu-CS5zie8mW0Onrlg-117" style="edgeStyle=orthogonalEdgeStyle;rounded=0;orthogonalLoop=1;jettySize=auto;html=1;entryX=0.748;entryY=0.988;entryDx=0;entryDy=0;entryPerimeter=0;" edge="1" parent="1" source="ACYu-CS5zie8mW0Onrlg-86" target="ACYu-CS5zie8mW0Onrlg-93">
          <mxGeometry relative="1" as="geometry">
            <mxPoint x="1000" y="-170" as="targetPoint" />
          </mxGeometry>
        </mxCell>
        <mxCell id="ACYu-CS5zie8mW0Onrlg-86" value="check availibility" style="swimlane;fontStyle=1;align=center;verticalAlign=top;childLayout=stackLayout;horizontal=1;startSize=26;horizontalStack=0;resizeParent=1;resizeParentMax=0;resizeLast=0;collapsible=1;marginBottom=0;" vertex="1" parent="1">
          <mxGeometry x="830" y="-140" width="160" height="150" as="geometry" />
        </mxCell>
        <mxCell id="ACYu-CS5zie8mW0Onrlg-87" value="+book id&#xa;+ book name&#xa;+book author" style="text;strokeColor=none;fillColor=none;align=left;verticalAlign=top;spacingLeft=4;spacingRight=4;overflow=hidden;rotatable=0;points=[[0,0.5],[1,0.5]];portConstraint=eastwest;" vertex="1" parent="ACYu-CS5zie8mW0Onrlg-86">
          <mxGeometry y="26" width="160" height="54" as="geometry" />
        </mxCell>
        <mxCell id="ACYu-CS5zie8mW0Onrlg-102" value="" style="line;strokeWidth=1;fillColor=none;align=left;verticalAlign=middle;spacingTop=-1;spacingLeft=3;spacingRight=3;rotatable=0;labelPosition=right;points=[];portConstraint=eastwest;" vertex="1" parent="ACYu-CS5zie8mW0Onrlg-86">
          <mxGeometry y="80" width="160" height="8" as="geometry" />
        </mxCell>
        <mxCell id="ACYu-CS5zie8mW0Onrlg-89" value="+chack availability()&#xa;+status" style="text;strokeColor=none;fillColor=none;align=left;verticalAlign=top;spacingLeft=4;spacingRight=4;overflow=hidden;rotatable=0;points=[[0,0.5],[1,0.5]];portConstraint=eastwest;" vertex="1" parent="ACYu-CS5zie8mW0Onrlg-86">
          <mxGeometry y="88" width="160" height="62" as="geometry" />
        </mxCell>
        <mxCell id="ACYu-CS5zie8mW0Onrlg-129" style="edgeStyle=orthogonalEdgeStyle;rounded=0;orthogonalLoop=1;jettySize=auto;html=1;" edge="1" parent="1" source="ACYu-CS5zie8mW0Onrlg-90">
          <mxGeometry relative="1" as="geometry">
            <mxPoint x="720" y="-550" as="targetPoint" />
            <Array as="points">
              <mxPoint x="820" y="-550" />
            </Array>
          </mxGeometry>
        </mxCell>
        <mxCell id="ACYu-CS5zie8mW0Onrlg-90" value="admin" style="swimlane;fontStyle=1;align=center;verticalAlign=top;childLayout=stackLayout;horizontal=1;startSize=26;horizontalStack=0;resizeParent=1;resizeParentMax=0;resizeLast=0;collapsible=1;marginBottom=0;" vertex="1" parent="1">
          <mxGeometry x="790" y="-460" width="170" height="182" as="geometry" />
        </mxCell>
        <mxCell id="ACYu-CS5zie8mW0Onrlg-91" value="+admin id&#xa;+admin address" style="text;strokeColor=none;fillColor=none;align=left;verticalAlign=top;spacingLeft=4;spacingRight=4;overflow=hidden;rotatable=0;points=[[0,0.5],[1,0.5]];portConstraint=eastwest;" vertex="1" parent="ACYu-CS5zie8mW0Onrlg-90">
          <mxGeometry y="26" width="170" height="64" as="geometry" />
        </mxCell>
        <mxCell id="ACYu-CS5zie8mW0Onrlg-92" value="" style="line;strokeWidth=1;fillColor=none;align=left;verticalAlign=middle;spacingTop=-1;spacingLeft=3;spacingRight=3;rotatable=0;labelPosition=right;points=[];portConstraint=eastwest;" vertex="1" parent="ACYu-CS5zie8mW0Onrlg-90">
          <mxGeometry y="90" width="170" height="8" as="geometry" />
        </mxCell>
        <mxCell id="ACYu-CS5zie8mW0Onrlg-93" value="+check()&#xa;+allow in person booking()&#xa;+check Eligibility()&#xa;+suggessionentry()&#xa;+issue book()" style="text;strokeColor=none;fillColor=none;align=left;verticalAlign=top;spacingLeft=4;spacingRight=4;overflow=hidden;rotatable=0;points=[[0,0.5],[1,0.5]];portConstraint=eastwest;" vertex="1" parent="ACYu-CS5zie8mW0Onrlg-90">
          <mxGeometry y="98" width="170" height="84" as="geometry" />
        </mxCell>
        <mxCell id="ACYu-CS5zie8mW0Onrlg-132" style="edgeStyle=orthogonalEdgeStyle;rounded=0;orthogonalLoop=1;jettySize=auto;html=1;entryX=1;entryY=0.5;entryDx=0;entryDy=0;" edge="1" parent="1" source="ACYu-CS5zie8mW0Onrlg-94" target="ACYu-CS5zie8mW0Onrlg-104">
          <mxGeometry relative="1" as="geometry">
            <mxPoint x="310" y="-400" as="targetPoint" />
          </mxGeometry>
        </mxCell>
        <mxCell id="ACYu-CS5zie8mW0Onrlg-94" value="form page" style="swimlane;fontStyle=1;align=center;verticalAlign=top;childLayout=stackLayout;horizontal=1;startSize=26;horizontalStack=0;resizeParent=1;resizeParentMax=0;resizeLast=0;collapsible=1;marginBottom=0;" vertex="1" parent="1">
          <mxGeometry x="240" y="-20" width="160" height="160" as="geometry" />
        </mxCell>
        <mxCell id="ACYu-CS5zie8mW0Onrlg-95" value="+use name&#xa;+user id &#xa;+user address&#xa;+user department&#xa;" style="text;strokeColor=none;fillColor=none;align=left;verticalAlign=top;spacingLeft=4;spacingRight=4;overflow=hidden;rotatable=0;points=[[0,0.5],[1,0.5]];portConstraint=eastwest;" vertex="1" parent="ACYu-CS5zie8mW0Onrlg-94">
          <mxGeometry y="26" width="160" height="64" as="geometry" />
        </mxCell>
        <mxCell id="ACYu-CS5zie8mW0Onrlg-96" value="" style="line;strokeWidth=1;fillColor=none;align=left;verticalAlign=middle;spacingTop=-1;spacingLeft=3;spacingRight=3;rotatable=0;labelPosition=right;points=[];portConstraint=eastwest;" vertex="1" parent="ACYu-CS5zie8mW0Onrlg-94">
          <mxGeometry y="90" width="160" height="8" as="geometry" />
        </mxCell>
        <mxCell id="ACYu-CS5zie8mW0Onrlg-97" value="+searchingforbook()&#xa;" style="text;strokeColor=none;fillColor=none;align=left;verticalAlign=top;spacingLeft=4;spacingRight=4;overflow=hidden;rotatable=0;points=[[0,0.5],[1,0.5]];portConstraint=eastwest;" vertex="1" parent="ACYu-CS5zie8mW0Onrlg-94">
          <mxGeometry y="98" width="160" height="62" as="geometry" />
        </mxCell>
        <mxCell id="ACYu-CS5zie8mW0Onrlg-134" style="edgeStyle=orthogonalEdgeStyle;rounded=0;orthogonalLoop=1;jettySize=auto;html=1;" edge="1" parent="1" source="ACYu-CS5zie8mW0Onrlg-98">
          <mxGeometry relative="1" as="geometry">
            <mxPoint x="830" y="-270" as="targetPoint" />
            <Array as="points">
              <mxPoint x="665" y="-190" />
              <mxPoint x="830" y="-190" />
            </Array>
          </mxGeometry>
        </mxCell>
        <mxCell id="ACYu-CS5zie8mW0Onrlg-98" value="suggestion" style="swimlane;fontStyle=1;align=center;verticalAlign=top;childLayout=stackLayout;horizontal=1;startSize=26;horizontalStack=0;resizeParent=1;resizeParentMax=0;resizeLast=0;collapsible=1;marginBottom=0;" vertex="1" parent="1">
          <mxGeometry x="635" y="-145" width="160" height="90" as="geometry" />
        </mxCell>
        <mxCell id="ACYu-CS5zie8mW0Onrlg-99" value="+new book name&#xa;+new book author&#xa;+publication" style="text;strokeColor=none;fillColor=none;align=left;verticalAlign=top;spacingLeft=4;spacingRight=4;overflow=hidden;rotatable=0;points=[[0,0.5],[1,0.5]];portConstraint=eastwest;" vertex="1" parent="ACYu-CS5zie8mW0Onrlg-98">
          <mxGeometry y="26" width="160" height="64" as="geometry" />
        </mxCell>
        <mxCell id="ACYu-CS5zie8mW0Onrlg-103" value="eligibility" style="swimlane;fontStyle=1;align=center;verticalAlign=top;childLayout=stackLayout;horizontal=1;startSize=26;horizontalStack=0;resizeParent=1;resizeParentMax=0;resizeLast=0;collapsible=1;marginBottom=0;" vertex="1" parent="1">
          <mxGeometry x="140" y="-440" width="160" height="86" as="geometry" />
        </mxCell>
        <mxCell id="ACYu-CS5zie8mW0Onrlg-104" value="+formpage" style="text;strokeColor=none;fillColor=none;align=left;verticalAlign=top;spacingLeft=4;spacingRight=4;overflow=hidden;rotatable=0;points=[[0,0.5],[1,0.5]];portConstraint=eastwest;" vertex="1" parent="ACYu-CS5zie8mW0Onrlg-103">
          <mxGeometry y="26" width="160" height="26" as="geometry" />
        </mxCell>
        <mxCell id="ACYu-CS5zie8mW0Onrlg-105" value="" style="line;strokeWidth=1;fillColor=none;align=left;verticalAlign=middle;spacingTop=-1;spacingLeft=3;spacingRight=3;rotatable=0;labelPosition=right;points=[];portConstraint=eastwest;" vertex="1" parent="ACYu-CS5zie8mW0Onrlg-103">
          <mxGeometry y="52" width="160" height="8" as="geometry" />
        </mxCell>
        <mxCell id="ACYu-CS5zie8mW0Onrlg-106" value="+eligible()" style="text;strokeColor=none;fillColor=none;align=left;verticalAlign=top;spacingLeft=4;spacingRight=4;overflow=hidden;rotatable=0;points=[[0,0.5],[1,0.5]];portConstraint=eastwest;" vertex="1" parent="ACYu-CS5zie8mW0Onrlg-103">
          <mxGeometry y="60" width="160" height="26" as="geometry" />
        </mxCell>
        <mxCell id="ACYu-CS5zie8mW0Onrlg-107" value="Library system" style="swimlane;fontStyle=1;align=center;verticalAlign=top;childLayout=stackLayout;horizontal=1;startSize=26;horizontalStack=0;resizeParent=1;resizeParentMax=0;resizeLast=0;collapsible=1;marginBottom=0;" vertex="1" parent="1">
          <mxGeometry x="550" y="-563" width="160" height="150" as="geometry" />
        </mxCell>
        <mxCell id="ACYu-CS5zie8mW0Onrlg-108" value="+admin id" style="text;strokeColor=none;fillColor=none;align=left;verticalAlign=top;spacingLeft=4;spacingRight=4;overflow=hidden;rotatable=0;points=[[0,0.5],[1,0.5]];portConstraint=eastwest;" vertex="1" parent="ACYu-CS5zie8mW0Onrlg-107">
          <mxGeometry y="26" width="160" height="26" as="geometry" />
        </mxCell>
        <mxCell id="ACYu-CS5zie8mW0Onrlg-109" value="" style="line;strokeWidth=1;fillColor=none;align=left;verticalAlign=middle;spacingTop=-1;spacingLeft=3;spacingRight=3;rotatable=0;labelPosition=right;points=[];portConstraint=eastwest;" vertex="1" parent="ACYu-CS5zie8mW0Onrlg-107">
          <mxGeometry y="52" width="160" height="8" as="geometry" />
        </mxCell>
        <mxCell id="ACYu-CS5zie8mW0Onrlg-110" value="+login&#xa;+issue book&#xa;&#xa;+check eligibility()&#xa;+display service()&#xa;+show catalog()" style="text;strokeColor=none;fillColor=none;align=left;verticalAlign=top;spacingLeft=4;spacingRight=4;overflow=hidden;rotatable=0;points=[[0,0.5],[1,0.5]];portConstraint=eastwest;" vertex="1" parent="ACYu-CS5zie8mW0Onrlg-107">
          <mxGeometry y="60" width="160" height="90" as="geometry" />
        </mxCell>
        <mxCell id="ACYu-CS5zie8mW0Onrlg-115" value="request to display" style="text;html=1;align=center;verticalAlign=middle;resizable=0;points=[];autosize=1;strokeColor=none;" vertex="1" parent="1">
          <mxGeometry x="660" y="-400" width="110" height="20" as="geometry" />
        </mxCell>
        <mxCell id="ACYu-CS5zie8mW0Onrlg-118" value="check availability of book&amp;nbsp;" style="text;html=1;align=center;verticalAlign=middle;resizable=0;points=[];autosize=1;strokeColor=none;" vertex="1" parent="1">
          <mxGeometry x="850" y="-260" width="150" height="20" as="geometry" />
        </mxCell>
        <mxCell id="ACYu-CS5zie8mW0Onrlg-143" style="edgeStyle=orthogonalEdgeStyle;rounded=0;orthogonalLoop=1;jettySize=auto;html=1;entryX=0.75;entryY=0;entryDx=0;entryDy=0;" edge="1" parent="1" source="ACYu-CS5zie8mW0Onrlg-120" target="ACYu-CS5zie8mW0Onrlg-94">
          <mxGeometry relative="1" as="geometry" />
        </mxCell>
        <mxCell id="ACYu-CS5zie8mW0Onrlg-120" value="user" style="swimlane;fontStyle=1;align=center;verticalAlign=top;childLayout=stackLayout;horizontal=1;startSize=26;horizontalStack=0;resizeParent=1;resizeParentMax=0;resizeLast=0;collapsible=1;marginBottom=0;" vertex="1" parent="1">
          <mxGeometry x="350" y="-200" width="190" height="120" as="geometry" />
        </mxCell>
        <mxCell id="ACYu-CS5zie8mW0Onrlg-121" value="+user id" style="text;strokeColor=none;fillColor=none;align=left;verticalAlign=top;spacingLeft=4;spacingRight=4;overflow=hidden;rotatable=0;points=[[0,0.5],[1,0.5]];portConstraint=eastwest;" vertex="1" parent="ACYu-CS5zie8mW0Onrlg-120">
          <mxGeometry y="26" width="190" height="26" as="geometry" />
        </mxCell>
        <mxCell id="ACYu-CS5zie8mW0Onrlg-122" value="" style="line;strokeWidth=1;fillColor=none;align=left;verticalAlign=middle;spacingTop=-1;spacingLeft=3;spacingRight=3;rotatable=0;labelPosition=right;points=[];portConstraint=eastwest;" vertex="1" parent="ACYu-CS5zie8mW0Onrlg-120">
          <mxGeometry y="52" width="190" height="8" as="geometry" />
        </mxCell>
        <mxCell id="ACYu-CS5zie8mW0Onrlg-123" value="+enter_details_in_formpage()&#xa;+enter new book suggestion()" style="text;strokeColor=none;fillColor=none;align=left;verticalAlign=top;spacingLeft=4;spacingRight=4;overflow=hidden;rotatable=0;points=[[0,0.5],[1,0.5]];portConstraint=eastwest;" vertex="1" parent="ACYu-CS5zie8mW0Onrlg-120">
          <mxGeometry y="60" width="190" height="60" as="geometry" />
        </mxCell>
        <mxCell id="ACYu-CS5zie8mW0Onrlg-130" value="login" style="text;html=1;align=center;verticalAlign=middle;resizable=0;points=[];autosize=1;strokeColor=none;" vertex="1" parent="1">
          <mxGeometry x="760" y="-530" width="40" height="20" as="geometry" />
        </mxCell>
        <mxCell id="ACYu-CS5zie8mW0Onrlg-133" style="edgeStyle=orthogonalEdgeStyle;rounded=0;orthogonalLoop=1;jettySize=auto;html=1;entryX=0;entryY=0.25;entryDx=0;entryDy=0;" edge="1" parent="1" source="ACYu-CS5zie8mW0Onrlg-123" target="ACYu-CS5zie8mW0Onrlg-98">
          <mxGeometry relative="1" as="geometry" />
        </mxCell>
        <mxCell id="ACYu-CS5zie8mW0Onrlg-135" value="enter suggestion entry in system&amp;nbsp;" style="text;html=1;align=center;verticalAlign=middle;resizable=0;points=[];autosize=1;strokeColor=none;" vertex="1" parent="1">
          <mxGeometry x="665" y="-190" width="190" height="20" as="geometry" />
        </mxCell>
        <mxCell id="ACYu-CS5zie8mW0Onrlg-141" style="edgeStyle=orthogonalEdgeStyle;rounded=0;orthogonalLoop=1;jettySize=auto;html=1;entryX=-0.031;entryY=0.367;entryDx=0;entryDy=0;entryPerimeter=0;" edge="1" parent="1" source="ACYu-CS5zie8mW0Onrlg-81" target="ACYu-CS5zie8mW0Onrlg-110">
          <mxGeometry relative="1" as="geometry" />
        </mxCell>
        <mxCell id="ACYu-CS5zie8mW0Onrlg-142" style="edgeStyle=orthogonalEdgeStyle;rounded=0;orthogonalLoop=1;jettySize=auto;html=1;" edge="1" parent="1" source="ACYu-CS5zie8mW0Onrlg-95">
          <mxGeometry relative="1" as="geometry">
            <mxPoint x="570" y="-410" as="targetPoint" />
          </mxGeometry>
        </mxCell>
        <mxCell id="ACYu-CS5zie8mW0Onrlg-144" style="edgeStyle=orthogonalEdgeStyle;rounded=0;orthogonalLoop=1;jettySize=auto;html=1;" edge="1" parent="1" source="ACYu-CS5zie8mW0Onrlg-97">
          <mxGeometry relative="1" as="geometry">
            <mxPoint x="920" y="20" as="targetPoint" />
          </mxGeometry>
        </mxCell>
        <mxCell id="ACYu-CS5zie8mW0Onrlg-145" value="check" style="edgeLabel;html=1;align=center;verticalAlign=middle;resizable=0;points=[];" vertex="1" connectable="0" parent="ACYu-CS5zie8mW0Onrlg-144">
          <mxGeometry x="0.0148" y="4" relative="1" as="geometry">
            <mxPoint as="offset" />
          </mxGeometry>
        </mxCell>
        <mxCell id="ACYu-CS5zie8mW0Onrlg-146" value="Library system&amp;nbsp;" style="shape=folder;fontStyle=1;spacingTop=10;tabWidth=40;tabHeight=14;tabPosition=left;html=1;" vertex="1" parent="1">
          <mxGeometry x="335" y="200" width="170" height="90" as="geometry" />
        </mxCell>
        <mxCell id="ACYu-CS5zie8mW0Onrlg-147" value="1" style="text;html=1;align=center;verticalAlign=middle;resizable=0;points=[];autosize=1;strokeColor=none;" vertex="1" parent="1">
          <mxGeometry x="410" y="80" width="20" height="20" as="geometry" />
        </mxCell>
        <mxCell id="ACYu-CS5zie8mW0Onrlg-148" value="1" style="text;html=1;align=center;verticalAlign=middle;resizable=0;points=[];autosize=1;strokeColor=none;" vertex="1" parent="1">
          <mxGeometry x="900" y="90" width="20" height="20" as="geometry" />
        </mxCell>
        <mxCell id="ACYu-CS5zie8mW0Onrlg-149" value="1" style="text;html=1;align=center;verticalAlign=middle;resizable=0;points=[];autosize=1;strokeColor=none;" vertex="1" parent="1">
          <mxGeometry x="410" y="20" width="20" height="20" as="geometry" />
        </mxCell>
        <mxCell id="ACYu-CS5zie8mW0Onrlg-150" value="1" style="text;html=1;align=center;verticalAlign=middle;resizable=0;points=[];autosize=1;strokeColor=none;" vertex="1" parent="1">
          <mxGeometry x="450" y="-75" width="20" height="20" as="geometry" />
        </mxCell>
        <mxCell id="ACYu-CS5zie8mW0Onrlg-151" value="1*" style="text;html=1;align=center;verticalAlign=middle;resizable=0;points=[];autosize=1;strokeColor=none;" vertex="1" parent="1">
          <mxGeometry x="195" y="50" width="30" height="20" as="geometry" />
        </mxCell>
        <mxCell id="ACYu-CS5zie8mW0Onrlg-152" value="1" style="text;html=1;align=center;verticalAlign=middle;resizable=0;points=[];autosize=1;strokeColor=none;" vertex="1" parent="1">
          <mxGeometry x="200" y="-190" width="20" height="20" as="geometry" />
        </mxCell>
        <mxCell id="ACYu-CS5zie8mW0Onrlg-153" value="1*" style="text;html=1;align=center;verticalAlign=middle;resizable=0;points=[];autosize=1;strokeColor=none;" vertex="1" parent="1">
          <mxGeometry x="380" y="-40" width="30" height="20" as="geometry" />
        </mxCell>
        <mxCell id="ACYu-CS5zie8mW0Onrlg-154" value="1" style="text;html=1;align=center;verticalAlign=middle;resizable=0;points=[];autosize=1;strokeColor=none;" vertex="1" parent="1">
          <mxGeometry x="540" y="-130" width="20" height="20" as="geometry" />
        </mxCell>
        <mxCell id="ACYu-CS5zie8mW0Onrlg-155" value="1*" style="text;html=1;align=center;verticalAlign=middle;resizable=0;points=[];autosize=1;strokeColor=none;" vertex="1" parent="1">
          <mxGeometry x="590" y="-140" width="30" height="20" as="geometry" />
        </mxCell>
        <mxCell id="ACYu-CS5zie8mW0Onrlg-156" value="1*" style="text;html=1;align=center;verticalAlign=middle;resizable=0;points=[];autosize=1;strokeColor=none;" vertex="1" parent="1">
          <mxGeometry x="550" y="-400" width="30" height="20" as="geometry" />
        </mxCell>
        <mxCell id="ACYu-CS5zie8mW0Onrlg-157" value="1" style="text;html=1;align=center;verticalAlign=middle;resizable=0;points=[];autosize=1;strokeColor=none;" vertex="1" parent="1">
          <mxGeometry x="830" y="-490" width="20" height="20" as="geometry" />
        </mxCell>
        <mxCell id="ACYu-CS5zie8mW0Onrlg-158" value="1" style="text;html=1;align=center;verticalAlign=middle;resizable=0;points=[];autosize=1;strokeColor=none;" vertex="1" parent="1">
          <mxGeometry x="720" y="-570" width="20" height="20" as="geometry" />
        </mxCell>
        <mxCell id="ACYu-CS5zie8mW0Onrlg-159" value="1" style="text;html=1;align=center;verticalAlign=middle;resizable=0;points=[];autosize=1;strokeColor=none;" vertex="1" parent="1">
          <mxGeometry x="920" y="-180" width="20" height="20" as="geometry" />
        </mxCell>
        <mxCell id="ACYu-CS5zie8mW0Onrlg-160" value="1" style="text;html=1;align=center;verticalAlign=middle;resizable=0;points=[];autosize=1;strokeColor=none;" vertex="1" parent="1">
          <mxGeometry x="890" y="-280" width="20" height="20" as="geometry" />
        </mxCell>
        <mxCell id="ACYu-CS5zie8mW0Onrlg-161" value="1*" style="text;html=1;align=center;verticalAlign=middle;resizable=0;points=[];autosize=1;strokeColor=none;" vertex="1" parent="1">
          <mxGeometry x="665" y="-160" width="30" height="20" as="geometry" />
        </mxCell>
        <mxCell id="ACYu-CS5zie8mW0Onrlg-162" value="1*" style="text;html=1;align=center;verticalAlign=middle;resizable=0;points=[];autosize=1;strokeColor=none;" vertex="1" parent="1">
          <mxGeometry x="805" y="-270" width="30" height="20" as="geometry" />
        </mxCell>
        <mxCell id="ACYu-CS5zie8mW0Onrlg-163" value="1" style="text;html=1;align=center;verticalAlign=middle;resizable=0;points=[];autosize=1;strokeColor=none;" vertex="1" parent="1">
          <mxGeometry x="680" y="-370" width="20" height="20" as="geometry" />
        </mxCell>
        <mxCell id="ACYu-CS5zie8mW0Onrlg-164" value="1" style="text;html=1;align=center;verticalAlign=middle;resizable=0;points=[];autosize=1;strokeColor=none;" vertex="1" parent="1">
          <mxGeometry x="650" y="-410" width="20" height="20" as="geometry" />
        </mxCell>
        <mxCell id="ACYu-CS5zie8mW0Onrlg-165" value="1" style="text;html=1;align=center;verticalAlign=middle;resizable=0;points=[];autosize=1;strokeColor=none;" vertex="1" parent="1">
          <mxGeometry x="430" y="-540" width="20" height="20" as="geometry" />
        </mxCell>
        <mxCell id="ACYu-CS5zie8mW0Onrlg-166" value="1" style="text;html=1;align=center;verticalAlign=middle;resizable=0;points=[];autosize=1;strokeColor=none;" vertex="1" parent="1">
          <mxGeometry x="520" y="-490" width="20" height="20" as="geometry" />
        </mxCell>
        <mxCell id="ACYu-CS5zie8mW0Onrlg-173" style="edgeStyle=orthogonalEdgeStyle;rounded=0;orthogonalLoop=1;jettySize=auto;html=1;" edge="1" parent="1" source="ACYu-CS5zie8mW0Onrlg-167" target="ACYu-CS5zie8mW0Onrlg-146">
          <mxGeometry relative="1" as="geometry" />
        </mxCell>
        <mxCell id="ACYu-CS5zie8mW0Onrlg-177" value="Text" style="edgeLabel;html=1;align=center;verticalAlign=middle;resizable=0;points=[];" vertex="1" connectable="0" parent="ACYu-CS5zie8mW0Onrlg-173">
          <mxGeometry x="-0.0658" y="-1" relative="1" as="geometry">
            <mxPoint as="offset" />
          </mxGeometry>
        </mxCell>
        <mxCell id="ACYu-CS5zie8mW0Onrlg-167" value="show catalog" style="shape=folder;fontStyle=1;spacingTop=10;tabWidth=40;tabHeight=14;tabPosition=left;html=1;" vertex="1" parent="1">
          <mxGeometry x="200" y="400" width="170" height="90" as="geometry" />
        </mxCell>
        <mxCell id="ACYu-CS5zie8mW0Onrlg-178" style="edgeStyle=orthogonalEdgeStyle;rounded=0;orthogonalLoop=1;jettySize=auto;html=1;entryX=0.206;entryY=1;entryDx=0;entryDy=0;entryPerimeter=0;" edge="1" parent="1" source="ACYu-CS5zie8mW0Onrlg-168" target="ACYu-CS5zie8mW0Onrlg-170">
          <mxGeometry relative="1" as="geometry" />
        </mxCell>
        <mxCell id="ACYu-CS5zie8mW0Onrlg-179" style="edgeStyle=orthogonalEdgeStyle;rounded=0;orthogonalLoop=1;jettySize=auto;html=1;entryX=0.782;entryY=1.013;entryDx=0;entryDy=0;entryPerimeter=0;" edge="1" parent="1" source="ACYu-CS5zie8mW0Onrlg-168" target="ACYu-CS5zie8mW0Onrlg-146">
          <mxGeometry relative="1" as="geometry" />
        </mxCell>
        <mxCell id="ACYu-CS5zie8mW0Onrlg-168" value="admin" style="shape=folder;fontStyle=1;spacingTop=10;tabWidth=40;tabHeight=14;tabPosition=left;html=1;" vertex="1" parent="1">
          <mxGeometry x="390" y="510" width="170" height="90" as="geometry" />
        </mxCell>
        <mxCell id="ACYu-CS5zie8mW0Onrlg-169" value="availablity&amp;nbsp;" style="shape=folder;fontStyle=1;spacingTop=10;tabWidth=40;tabHeight=14;tabPosition=left;html=1;" vertex="1" parent="1">
          <mxGeometry x="730" y="515" width="170" height="90" as="geometry" />
        </mxCell>
        <mxCell id="ACYu-CS5zie8mW0Onrlg-180" style="edgeStyle=orthogonalEdgeStyle;rounded=0;orthogonalLoop=1;jettySize=auto;html=1;entryX=0.53;entryY=0.132;entryDx=0;entryDy=0;entryPerimeter=0;" edge="1" parent="1" source="ACYu-CS5zie8mW0Onrlg-170" target="ACYu-CS5zie8mW0Onrlg-169">
          <mxGeometry relative="1" as="geometry" />
        </mxCell>
        <mxCell id="ACYu-CS5zie8mW0Onrlg-170" value="booking" style="shape=folder;fontStyle=1;spacingTop=10;tabWidth=40;tabHeight=14;tabPosition=left;html=1;" vertex="1" parent="1">
          <mxGeometry x="645" y="250" width="170" height="90" as="geometry" />
        </mxCell>
        <mxCell id="ACYu-CS5zie8mW0Onrlg-181" style="edgeStyle=orthogonalEdgeStyle;rounded=0;orthogonalLoop=1;jettySize=auto;html=1;" edge="1" parent="1" source="ACYu-CS5zie8mW0Onrlg-171">
          <mxGeometry relative="1" as="geometry">
            <mxPoint x="330" y="240" as="targetPoint" />
            <Array as="points">
              <mxPoint x="45" y="220" />
              <mxPoint x="300" y="220" />
              <mxPoint x="300" y="240" />
            </Array>
          </mxGeometry>
        </mxCell>
        <mxCell id="ACYu-CS5zie8mW0Onrlg-186" style="edgeStyle=orthogonalEdgeStyle;rounded=0;orthogonalLoop=1;jettySize=auto;html=1;entryX=0;entryY=0.444;entryDx=0;entryDy=0;entryPerimeter=0;" edge="1" parent="1" source="ACYu-CS5zie8mW0Onrlg-171" target="ACYu-CS5zie8mW0Onrlg-185">
          <mxGeometry relative="1" as="geometry" />
        </mxCell>
        <mxCell id="ACYu-CS5zie8mW0Onrlg-171" value="Actor" style="shape=umlActor;verticalLabelPosition=bottom;verticalAlign=top;html=1;" vertex="1" parent="1">
          <mxGeometry x="30" y="265" width="30" height="60" as="geometry" />
        </mxCell>
        <mxCell id="ACYu-CS5zie8mW0Onrlg-184" style="edgeStyle=orthogonalEdgeStyle;rounded=0;orthogonalLoop=1;jettySize=auto;html=1;entryX=0.647;entryY=1;entryDx=0;entryDy=0;entryPerimeter=0;" edge="1" parent="1" source="ACYu-CS5zie8mW0Onrlg-183" target="ACYu-CS5zie8mW0Onrlg-168">
          <mxGeometry relative="1" as="geometry" />
        </mxCell>
        <mxCell id="ACYu-CS5zie8mW0Onrlg-183" value="eligibility" style="shape=folder;fontStyle=1;spacingTop=10;tabWidth=40;tabHeight=14;tabPosition=left;html=1;" vertex="1" parent="1">
          <mxGeometry x="605" y="620" width="170" height="90" as="geometry" />
        </mxCell>
        <mxCell id="ACYu-CS5zie8mW0Onrlg-187" style="edgeStyle=orthogonalEdgeStyle;rounded=0;orthogonalLoop=1;jettySize=auto;html=1;entryX=0;entryY=0;entryDx=0;entryDy=52;entryPerimeter=0;" edge="1" parent="1" source="ACYu-CS5zie8mW0Onrlg-185" target="ACYu-CS5zie8mW0Onrlg-168">
          <mxGeometry relative="1" as="geometry" />
        </mxCell>
        <mxCell id="ACYu-CS5zie8mW0Onrlg-185" value="search book" style="shape=folder;fontStyle=1;spacingTop=10;tabWidth=40;tabHeight=14;tabPosition=left;html=1;" vertex="1" parent="1">
          <mxGeometry x="130" y="530" width="170" height="90" as="geometry" />
        </mxCell>
      </root>
    </mxGraphModel>
  </diagram>
</mxfile>
